<mxfile host="app.diagrams.net" modified="2023-10-03T07:53:55.349Z" agent="Mozilla/5.0 (Windows NT 10.0; Win64; x64) AppleWebKit/537.36 (KHTML, like Gecko) Chrome/117.0.0.0 Safari/537.36" version="22.0.1" etag="_wcGjAnso6bmv-1VMiD-" type="github">
  <diagram name="Sayfa -1" id="oDKaiKBJ80WNFTpR5X5M">
    <mxGraphModel>
      <root>
        <mxCell id="0" />
        <mxCell id="1" parent="0" />
      </root>
    </mxGraphModel>
  </diagram>
</mxfile>
